PathFileType	4	(X/Y/Z)	C:/Users/opensim2020/Desktop/walking_exp_matlab/subject01_walking16_run.trc																																																																																																																																																																																											
DataRate	CameraRate	NumFrames	NumMarkers	Units	OrigDataRate	OrigDataStartFrame	OrigNumFrames																																																																																																																																																																																							
100	100	4	63	mm	100	359	89																																																																																																																																																																																							
Frame#	Time	LKNE			RELB			LTHI			RUPA			LTIB			RFRM			LTOE			LSHO			RWRA			RSHO			RWRB			STRN			RFIN			RBHD			CLAV			LHEE			LFHD			RASI			RFHD			LBHD			C7			LWRB			LWRA			LFRM			RTHI			RKNE			LELB			LFIN			LUPA			RTIB			RANK			RTOE			RHEE			T10			RBAK			LASI			LPSI			RPSI			LANK			*39			*40			*41			*42			*43			*44			*45			*46			*47			*48			*49			*50			*51			*52			*53			*54			*55			*56			*57			*58			*59			*60			*61			*62		
		X1	Y1	Z1	X2	Y2	Z2	X3	Y3	Z3	X4	Y4	Z4	X5	Y5	Z5	X6	Y6	Z6	X7	Y7	Z7	X8	Y8	Z8	X9	Y9	Z9	X10	Y10	Z10	X11	Y11	Z11	X12	Y12	Z12	X13	Y13	Z13	X14	Y14	Z14	X15	Y15	Z15	X16	Y16	Z16	X17	Y17	Z17	X18	Y18	Z18	X19	Y19	Z19	X20	Y20	Z20	X21	Y21	Z21	X22	Y22	Z22	X23	Y23	Z23	X24	Y24	Z24	X25	Y25	Z25	X26	Y26	Z26	X27	Y27	Z27	X28	Y28	Z28	X29	Y29	Z29	X30	Y30	Z30	X31	Y31	Z31	X32	Y32	Z32	X33	Y33	Z33	X34	Y34	Z34	X35	Y35	Z35	X36	Y36	Z36	X37	Y37	Z37	X38	Y38	Z38	X39	Y39	Z39	X40	Y40	Z40	X41	Y41	Z41	X42	Y42	Z42	X43	Y43	Z43	X44	Y44	Z44	X45	Y45	Z45	X46	Y46	Z46	X47	Y47	Z47	X48	Y48	Z48	X49	Y49	Z49	X50	Y50	Z50	X51	Y51	Z51	X52	Y52	Z52	X53	Y53	Z53	X54	Y54	Z54	X55	Y55	Z55	X56	Y56	Z56	X57	Y57	Z57	X58	Y58	Z58	X59	Y59	Z59	X60	Y60	Z60	X61	Y61	Z61	X62	Y62	Z62	X63	Y63	Z63
																																																																																																																																																																																														
12	0.11	-1121.41321	610.98767	-526.70361	-1327.8999	1017.45178	-158.42787	-1201.96021	711.52594	-550.9162	-1322.44617	1148.25842	-148.7243	-1220.31763	457.10211	-542.97821	-1232.62244	987.43024	-239.49507	-1247.99768	144.39838	-514.52917	-1306.57947	1355.46838	-555.51678	-1156.0614	1046.27002	-336.68506	-1267.39685	1338.40222	-251.13336	-1140.51575	994.56104	-321.39163	-1226.61023	1140.90771	-420.7355	-1080.73047	1028.03564	-356.12521	-1355.6123	1553.86987	-314.68231	-1233.63904	1303.0625	-408.5459	-1391.47607	259.80109	-449.83502	-1282.16687	1619.57056	-451.92383	-1392.3457	877.93768	-284.08179	-1258.74292	1632.0332	-341.71536	-1377.95251	1543.71216	-431.61456	-1373.96313	1389.0564	-386.1586	-1515.12061	972.18793	-777.62231	-1467.06653	969.75409	-744.07562	-1534.27368	1091.74011	-758.71039	-1537.23047	568.8252	-242.60178	-1574.3772	411.3183	-266.23401	-1554.11292	1208.51953	-717.13208	-1463.42078	906.3595	-795.28809	-1442.75977	1289.20801	-650.80499	-1710.97095	300.16507	-263.26633	-1850.08777	141.70351	-309.92447	-1768.76514	22.86379	-329.63348	-1905.1438	148.99243	-359.08057	-1479.48633	1123.5813	-388.48325	-1448.96826	1216.24219	-299.32578	-1366.10266	903.72333	-496.87265	-1548.52808	934.17719	-469.39032	-1565.21667	935.29327	-329.11774	-1340.64526	263.74936	-503.97723	1973.10669	1023.42371	-3101.83472	2012.52344	1022.05902	-3140.64746	NaN	NaN	NaN	NaN	NaN	NaN	NaN	NaN	NaN	NaN	NaN	NaN	NaN	NaN	NaN	NaN	NaN	NaN	NaN	NaN	NaN	NaN	NaN	NaN	-1284.42261	1658.6261	-361.33081	NaN	NaN	NaN	NaN	NaN	NaN	NaN	NaN	NaN	NaN	NaN	NaN	NaN	NaN	NaN	NaN	NaN	NaN	NaN	NaN	NaN	NaN	NaN	NaN	NaN	NaN	NaN	NaN	NaN	NaN	NaN	NaN	NaN	NaN	NaN	NaN	NaN	NaN	NaN
13	0.12	-1070.70532	621.2301	-528.3819	-1269.63354	1024.46802	-162.75743	-1150.48926	726.60736	-550.60382	-1265.93604	1155.39343	-151.91248	-1153.73608	456.87643	-544.46179	-1176.12048	1002.64526	-248.64032	-1146.64722	138.55647	-510.29123	-1260.7157	1361.84204	-557.64941	-1105.59216	1069.68799	-344.90527	-1217.80298	1345.19507	-256.61008	-1088.02734	1017.66608	-333.66776	-1179.88184	1147.10706	-426.42703	-1032.42969	1055.0033	-370.63821	-1308.48083	1559.24866	-318.03299	-1186.87769	1309.11523	-412.95804	-1299.5332	242.39642	-449.82953	-1234.60046	1625.12598	-454.87231	-1342.34558	882.10718	-283.94998	-1211.09204	1636.65942	-344.66638	-1331.19104	1550.06946	-435.10452	-1326.4043	1394.73022	-388.23199	-1477.0177	986.68323	-781.19495	-1427.83569	982.88116	-748.33429	-1494.98108	1107.20557	-760.15753	-1499.24805	577.4444	-242.57646	-1548.98779	423.80405	-265.12897	-1513.25574	1222.54724	-715.07904	-1425.28735	920.18713	-802.10168	-1398.62756	1299.51111	-651.13812	-1688.97852	316.52454	-261.1521	-1826.7677	156.7375	-304.12027	-1767.69836	23.21318	-328.71149	-1877.02576	168.57356	-355.03873	-1430.7207	1127.88867	-387.51483	-1401.63196	1222.12158	-300.86566	-1314.49194	910.25891	-494.94742	-1497.60437	938.85065	-468.68741	-1514.52271	938.36798	-327.87625	-1256.20691	261.61761	-504.24356	1973.18933	1023.69806	-3101.93188	2012.46118	1022.021	-3140.80396	-1249.0166	250.25043	-503.89203	-1398.48022	1222.00964	-297.55643	NaN	NaN	NaN	NaN	NaN	NaN	NaN	NaN	NaN	NaN	NaN	NaN	NaN	NaN	NaN	NaN	NaN	NaN	-1236.84497	1663.88257	-364.23734	NaN	NaN	NaN	NaN	NaN	NaN	NaN	NaN	NaN	NaN	NaN	NaN	NaN	NaN	NaN	NaN	NaN	NaN	NaN	NaN	NaN	NaN	NaN	NaN	NaN	NaN	NaN	NaN	NaN	NaN	NaN	NaN	NaN	NaN	NaN	NaN	NaN	NaN	NaN
14	0.13	-1021.40576	626.70477	-531.00952	-1212.92908	1031.40088	-165.79697	-1103.12634	731.81641	-551.84528	-1210.82776	1162.58521	-155.78264	-1087.4325	453.0289	-546.97552	-1122.0741	1017.01117	-255.99858	-1048.26355	132.23755	-506.1441	-1214.58801	1367.96191	-559.82458	-1058.04224	1090.98462	-352.06824	-1168.95703	1351.16541	-262.52405	-1038.36792	1039.35938	-343.29575	-1133.03613	1153.16492	-431.97525	-985.26947	1080.05933	-382.26822	-1261.10413	1565.1217	-321.39868	-1140.43359	1315.39819	-417.30649	-1208.23914	227.13139	-449.77502	-1186.16406	1630.36035	-457.78754	-1291.97522	888.14764	-283.94897	-1162.49817	1641.46472	-347.33636	-1284.40649	1556.82507	-438.55945	-1279.10742	1400.15674	-390.49292	-1435.99109	997.31665	-783.81158	-1386.32532	993.37726	-752.18585	-1451.97546	1119.76428	-761.10406	-1460.172	586.16449	-242.84979	-1520.08813	437.27591	-264.49567	-1470.16528	1234.03406	-714.34387	-1384.57422	930.34668	-807.46381	-1353.61511	1308.46887	-652.39911	-1662.39844	333.12805	-258.83603	-1797.22949	170.30797	-298.2099	-1767.58972	23.36232	-330.19476	-1841.12402	189.7242	-351.14206	-1381.55518	1132.15149	-386.35892	-1354.5575	1227.7533	-302.59302	-1262.95068	916.14594	-492.84924	-1445.76978	943.7066	-467.78445	-1463.05359	942.67169	-327.72699	-1172.04651	255.86403	-505.53995	1973.08777	1024.04871	-3102.0979	2012.51245	1022.15692	-3140.78784	NaN	NaN	NaN	NaN	NaN	NaN	-1159.00806	237.33112	-504.1011	-1348.49902	1227.95081	-296.48276	NaN	NaN	NaN	NaN	NaN	NaN	NaN	NaN	NaN	NaN	NaN	NaN	-1188.40088	1669.22693	-367.17679	NaN	NaN	NaN	NaN	NaN	NaN	NaN	NaN	NaN	NaN	NaN	NaN	NaN	NaN	NaN	NaN	NaN	NaN	NaN	NaN	NaN	NaN	NaN	NaN	NaN	NaN	NaN	NaN	NaN	NaN	NaN	NaN	NaN	NaN	NaN	NaN	NaN	NaN	NaN
15	0.14	-972.99353	627.88477	-534.51373	-1158.23547	1037.922	-167.49797	-1057.13159	731.77222	-553.06879	-1157.08899	1169.52795	-159.71938	-1021.81982	446.65945	-550.16431	-1070.19067	1030.04871	-260.87552	-954.65253	126.35603	-503.28619	-1168.76538	1372.97913	-562.40576	-1013.20813	1109.34485	-357.92523	-1120.9707	1356.57129	-268.0863	-990.85175	1058.87366	-350.6178	-1085.68506	1158.93079	-437.41571	-941.20825	1102.55896	-392.48413	-1213.62988	1570.9397	-324.83786	-1093.96179	1321.45642	-422.06265	-1118.34253	213.44032	-449.55182	-1137.56543	1634.98901	-460.87784	-1241.29138	893.68146	-283.52905	-1114.41052	1645.37317	-351.2356	-1236.89893	1563.32849	-441.93607	-1232.08313	1404.96814	-393.01831	-1391.57422	1004.01715	-786.17505	-1341.30286	1000.42816	-755.52563	-1406.51794	1128.18689	-762.78888	-1419.99976	595.32526	-242.94936	-1487.03552	450.56516	-263.82715	-1424.42163	1241.81787	-714.83624	-1341.17761	937.15955	-811.43512	-1307.58508	1315.46118	-654.48969	-1631.00818	348.28339	-257.36377	-1766.71509	185.47537	-293.97513	-1754.99048	35.08158	-331.28165	-1805.27136	211.59639	-345.74652	-1332.06824	1135.94934	-385.32413	-1307.75598	1232.77002	-304.58481	-1211.87476	920.97723	-490.86166	-1394.33252	949.28076	-467.27173	-1410.93591	948.0874	-328.60822	-1088.57703	247.58852	-507.51144	1973.07422	1023.52679	-3102.00977	2012.50159	1022.13202	-3140.85693	-1071.45728	225.13924	-504.74109	-1299.04944	1233.59314	-296.5531	NaN	NaN	NaN	NaN	NaN	NaN	NaN	NaN	NaN	NaN	NaN	NaN	NaN	NaN	NaN	NaN	NaN	NaN	-1139.26965	1674.15417	-370.45773	NaN	NaN	NaN	NaN	NaN	NaN	NaN	NaN	NaN	NaN	NaN	NaN	NaN	NaN	NaN	NaN	NaN	NaN	NaN	NaN	NaN	NaN	NaN	NaN	NaN	NaN	NaN	NaN	NaN	NaN	NaN	NaN	NaN	NaN	NaN	NaN	NaN	NaN	NaN
